<svg width="17" height="18" viewBox="0 0 17 18" fill="none" xmlns="http://www.w3.org/2000/svg">
<path d="M15.6356 4.54825C12.9716 4.28425 10.2916 4.14825 7.61959 4.14825C6.0356 4.14825 4.4516 4.22825 2.8676 4.38825L1.2356 4.54825" stroke="#6C7275" stroke-width="1.2" stroke-linecap="round" stroke-linejoin="round"/>
<path d="M5.63535 3.74041L5.81135 2.69241C5.93935 1.93241 6.03535 1.36441 7.38734 1.36441H9.48335C10.8353 1.36441 10.9393 1.96441 11.0593 2.70041L11.2353 3.74041" stroke="#6C7275" stroke-width="1.2" stroke-linecap="round" stroke-linejoin="round"/>
<path d="M13.9156 7.07645L13.3956 15.1324C13.3076 16.3884 13.2356 17.3644 11.0036 17.3644H5.86766C3.63566 17.3644 3.56366 16.3884 3.47566 15.1324L2.95566 7.07645" stroke="#6C7275" stroke-width="1.2" stroke-linecap="round" stroke-linejoin="round"/>
<path d="M7.09998 12.9644H9.76398" stroke="#6C7275" stroke-width="1.2" stroke-linecap="round" stroke-linejoin="round"/>
<path d="M6.43591 9.76443H10.4359" stroke="#6C7275" stroke-width="1.2" stroke-linecap="round" stroke-linejoin="round"/>
</svg>
