<svg width="17" height="17" viewBox="0 0 17 17" fill="none" xmlns="http://www.w3.org/2000/svg">
<path d="M2.5 14.5H14.5M9.68961 4.04114C9.68961 4.04114 9.68961 5.13089 10.7794 6.22064C11.8691 7.31039 12.9589 7.31039 12.9589 7.31039M5.37975 12.492L7.66823 12.1651C7.99833 12.118 8.30424 11.965 8.54003 11.7292L14.0486 6.22064C14.6505 5.61879 14.6505 4.64299 14.0486 4.04114L12.9589 2.95139C12.357 2.34954 11.3812 2.34954 10.7794 2.95139L5.27078 8.45997C5.03499 8.69576 4.88203 9.00167 4.83488 9.33177L4.50795 11.6202C4.4353 12.1288 4.8712 12.5647 5.37975 12.492Z" stroke="#6C7275" stroke-width="1.5" stroke-linecap="round"/>
</svg>
