<svg width="17" height="17" viewBox="0 0 17 17" fill="none" xmlns="http://www.w3.org/2000/svg">
<path fill-rule="evenodd" clip-rule="evenodd" d="M6.24237 16.9269H10.7424C14.8149 16.9269 16.5549 15.1869 16.5549 11.1144V6.61441C16.5549 2.54191 14.8149 0.80191 10.7424 0.80191H6.24237C2.16987 0.80191 0.429871 2.54191 0.429871 6.61441V11.1144C0.429871 15.1869 2.16987 16.9269 6.24237 16.9269ZM1.55487 6.61441C1.55487 3.15691 2.78487 1.92691 6.24237 1.92691H10.7424C14.1999 1.92691 15.4299 3.15691 15.4299 6.61441V11.1144C15.4299 14.5719 14.1999 15.8019 10.7424 15.8019H6.24237C2.78487 15.8019 1.55487 14.5719 1.55487 11.1144V6.61441ZM5.49237 9.42691H11.4924C11.7999 9.42691 12.0549 9.17191 12.0549 8.86441C12.0549 8.55691 11.7999 8.30191 11.4924 8.30191H5.49237C5.18487 8.30191 4.92987 8.55691 4.92987 8.86441C4.92987 9.17191 5.18487 9.42691 5.49237 9.42691Z" fill="#979797"/>
</svg>
